HIERARCHY
ROOT root
{
	OFFSET 0.000000 0.000000 0.000000
	CHANNELS 6 Xposition Yposition Zposition Zrotation Yrotation Xrotation
	JOINT lhip
	{
		OFFSET 0.058581 -0.082280 -0.017664
		CHANNELS 3 Zrotation Yrotation Xrotation
		JOINT lknee
		{
			OFFSET 0.043451 -0.386469 0.008037
			CHANNELS 3 Zrotation Yrotation Xrotation
			JOINT lankle
			{
				OFFSET -0.014790 -0.426874 -0.037428
				CHANNELS 3 Zrotation Yrotation Xrotation
				JOINT ltoe
				{
					OFFSET 0.041054 -0.060286 0.122042
					CHANNELS 3 Zrotation Yrotation Xrotation
					End Site
					{
						OFFSET 0.000000 0.000000 0.000000
					}
				}
			}
		}
	}
	JOINT rhip
	{
		OFFSET -0.060310 -0.090513 -0.013543
		CHANNELS 3 Zrotation Yrotation Xrotation
		JOINT rknee
		{
			OFFSET -0.043257 -0.383688 -0.004843
			CHANNELS 3 Zrotation Yrotation Xrotation
			JOINT rankle
			{
				OFFSET 0.019056 -0.420046 -0.034562
				CHANNELS 3 Zrotation Yrotation Xrotation
				JOINT rtoe
				{
					OFFSET -0.034840 -0.062106 0.130323
					CHANNELS 3 Zrotation Yrotation Xrotation
					End Site
					{
						OFFSET 0.000000 0.000000 0.000000
					}
				}
			}
		}
	}
	JOINT lowerback
	{
		OFFSET 0.004439 0.124404 -0.038385
		CHANNELS 3 Zrotation Yrotation Xrotation
		JOINT upperback
		{
			OFFSET 0.004488 0.137956 0.026820
			CHANNELS 3 Zrotation Yrotation Xrotation
			JOINT chest
			{
				OFFSET -0.002265 0.056032 0.002855
				CHANNELS 3 Zrotation Yrotation Xrotation
				JOINT lowerneck
				{
					OFFSET -0.013390 0.211636 -0.033468
					CHANNELS 3 Zrotation Yrotation Xrotation
					JOINT upperneck
					{
						OFFSET 0.010113 0.088937 0.050410
						CHANNELS 3 Zrotation Yrotation Xrotation
						End Site
						{
							OFFSET 0.000000 0.000000 0.000000
						}
					}
				}
				JOINT lclavicle
				{
					OFFSET 0.071702 0.114000 -0.018898
					CHANNELS 3 Zrotation Yrotation Xrotation
					JOINT lshoulder
					{
						OFFSET 0.122921 0.045205 -0.019046
						CHANNELS 3 Zrotation Yrotation Xrotation
						JOINT lelbow
						{
							OFFSET 0.255332 -0.015649 -0.022946
							CHANNELS 3 Zrotation Yrotation Xrotation
							JOINT lwrist
							{
								OFFSET 0.265709 0.012698 -0.007375
								CHANNELS 3 Zrotation Yrotation Xrotation
								End Site
								{
									OFFSET 0.000000 0.000000 0.000000
								}
							}
						}
					}
				}
				JOINT rclavicle
				{
					OFFSET -0.082954 0.112472 -0.023707
					CHANNELS 3 Zrotation Yrotation Xrotation
					JOINT rshoulder
					{
						OFFSET -0.113228 0.046853 -0.008472
						CHANNELS 3 Zrotation Yrotation Xrotation
						JOINT relbow
						{
							OFFSET -0.260127 -0.014369 -0.031269
							CHANNELS 3 Zrotation Yrotation Xrotation
							JOINT rwrist
							{
								OFFSET -0.269108 0.006794 -0.006027
								CHANNELS 3 Zrotation Yrotation Xrotation
								End Site
								{
									OFFSET 0.000000 0.000000 0.000000
								}
							}
						}
					}
				}
			}
		}
	}
}
MOTION
Frames: 10
Frame Time: 0.033333
0.687815 0.985850 0.993088 -81.090614 1.051888 84.079968 0.132853 -0.605880 15.711840 -8.296991 -20.574426 24.226879 -0.061270 4.471451 -9.037135 0.000000 -0.000000 0.000000 -2.524533 1.331607 -19.362596 0.807680 -1.991686 18.700549 7.494119 -4.977033 2.090219 0.000000 -0.000000 0.000000 -0.488953 -3.903734 14.115650 2.745093 0.311458 -2.086415 0.683500 -3.733921 2.444996 1.024066 9.569418 2.092431 -5.461691 4.557149 19.368780 -27.365100 6.693259 1.603008 -50.630655 -11.900814 9.849990 10.400001 -37.089687 1.936525 -2.351869 -5.513522 -8.301906 34.266309 -3.527597 -0.362197 49.924053 4.329061 14.823765 -11.719669 14.058731 -10.510144 7.695552 2.387887 -5.099166 
0.650249 0.989315 0.998467 -81.074477 1.556584 83.717901 0.882047 -0.697917 12.862461 -9.708002 -17.912531 32.231046 -3.860264 3.539715 -1.347858 0.000000 -0.000000 0.000000 -1.298782 1.689934 -17.073608 1.129858 -2.278632 19.969672 4.538533 -3.554352 -0.336262 0.000000 -0.000000 0.000000 0.076459 -3.630269 14.032148 2.822218 0.293501 -1.710341 0.496988 -3.334297 2.092242 0.682751 10.083936 1.808361 -5.337800 5.137078 18.606962 -27.960265 7.071401 1.646368 -50.930067 -10.631515 9.905145 10.173177 -36.560643 2.190263 -3.093638 -5.543169 -8.654059 34.365192 -3.377480 -0.087991 49.600965 4.731114 14.109881 -11.620162 13.300422 -10.585544 8.017949 1.787660 -6.207443 
0.614692 0.992390 1.003277 -80.588939 1.831076 83.450938 1.365616 -1.604952 8.713524 -11.750608 -15.308893 40.970907 -5.871605 2.443669 7.143802 0.000000 -0.000000 0.000000 -0.109103 1.272669 -14.295414 1.236266 -1.593929 20.208512 1.873435 -3.887178 -1.774746 0.000000 -0.000000 0.000000 0.444346 -2.692393 13.939708 2.956309 0.035692 -1.543081 0.311411 -3.194149 1.605908 0.235778 9.603658 1.830842 -4.715899 5.380704 17.994752 -28.304292 7.073342 2.263943 -51.309334 -9.556422 9.972855 9.527619 -35.381994 3.520543 -3.847048 -5.683678 -8.960321 33.962671 -3.104523 0.476860 49.610654 4.829069 13.669570 -11.570935 13.478797 -10.458047 7.962990 1.577727 -7.311416 
0.582210 0.993837 1.006753 -79.615143 1.885680 83.163908 1.232030 -2.725088 4.294094 -13.172754 -12.763919 48.901199 -5.211030 2.689654 12.320325 0.000000 -0.000000 0.000000 0.389552 0.793843 -11.622904 1.304977 -1.832709 20.168236 0.812320 -4.817283 -3.380246 0.000000 -0.000000 0.000000 0.655065 -1.692476 13.777332 2.930639 -0.205222 -1.106800 0.157669 -3.046125 1.471253 0.100488 8.769955 1.247879 -4.237626 5.248351 17.777282 -28.760703 6.642530 2.451893 -51.483911 -8.887607 10.112770 8.474862 -34.071319 5.163542 -4.584538 -5.083893 -7.997962 33.778617 -2.571597 0.605160 49.144863 4.885899 13.427432 -11.580260 14.611786 -10.845154 7.769876 2.221380 -7.678647 
0.550330 0.993678 1.010243 -78.778788 1.818495 82.600600 1.261072 -2.756654 0.329218 -11.981574 -9.512043 54.141982 -3.947823 4.131327 10.403756 0.000000 -0.000000 0.000000 0.773105 -0.231135 -8.487943 1.095095 -1.689467 19.408229 0.685271 -4.974724 -5.214859 0.000000 -0.000000 0.000000 0.911073 -0.550200 14.325243 2.694764 -0.273510 -1.352538 0.022860 -2.700720 1.695335 -0.006932 7.820685 0.441368 -4.005939 4.866870 17.943491 -29.326997 6.382660 1.948816 -51.975136 -8.259464 10.191021 7.435336 -32.894692 6.929399 -4.561895 -4.766414 -6.461288 33.529637 -2.126794 0.247802 48.482812 5.370344 13.022936 -11.005555 14.698856 -10.499879 7.196600 2.288661 -7.304751 
0.520271 0.992254 1.013665 -78.220555 1.399380 81.949245 1.161795 -2.247263 -3.325629 -10.571145 -6.736439 56.566479 -2.962804 4.426945 6.872382 0.000000 -0.000000 0.000000 0.896621 -1.399393 -5.291118 0.607467 -1.217629 18.376856 0.400168 -5.079850 -6.692927 0.000000 -0.000000 0.000000 0.585121 0.785098 14.973647 2.471389 -0.257115 -1.760903 0.102755 -2.260676 2.187321 0.123167 7.230514 0.584183 -4.112228 4.742922 17.706215 -29.451064 6.209911 1.574796 -52.866452 -7.612241 10.041687 6.324382 -31.234518 9.015302 -5.906820 -3.890028 -5.842072 33.043034 -1.420489 0.520680 48.014680 6.390290 12.702842 -11.190419 15.221274 -10.245247 6.914108 2.483183 -6.866343 
0.491498 0.989481 1.016398 -77.798866 0.864930 81.470371 1.210972 -2.173719 -6.223340 -10.775671 -4.638700 56.430182 -2.083011 3.976622 4.276205 0.000000 -0.000000 0.000000 0.480140 -2.379335 -2.141914 0.536489 -0.766021 16.970084 0.347820 -4.973574 -7.828935 0.000000 -0.000000 0.000000 0.271555 2.018395 15.481765 2.126224 -0.102888 -1.969446 0.127112 -1.686850 2.318517 0.181353 6.730254 0.337014 -4.102436 4.194828 17.648485 -29.608208 6.280971 1.459678 -53.618290 -6.722468 9.887273 5.807747 -30.473928 10.089709 -6.168634 -3.481536 -5.547927 32.346475 -0.754327 0.546378 47.555389 7.424178 12.221039 -11.145921 15.747160 -10.163730 6.771476 2.639005 -6.759573 
0.463568 0.985713 1.018549 -77.565721 0.474856 81.131269 1.727684 -2.207141 -8.624086 -10.979818 -2.344532 53.897127 -1.145777 3.868785 -0.202809 0.000000 -0.000000 0.000000 -0.055768 -3.083457 0.879826 0.778975 -0.145206 15.889344 0.732448 -4.848110 -8.766722 0.000000 -0.000000 0.000000 0.316905 3.239362 15.919048 1.739979 0.035161 -2.567906 -0.060241 -1.258469 2.416348 0.275636 6.698740 0.771848 -3.801436 3.809304 17.819093 -29.613512 6.666604 1.581124 -54.481642 -5.613123 9.613618 5.460067 -29.493170 11.040058 -5.788246 -3.752670 -5.828050 31.659476 -0.317540 0.765866 47.034420 8.558888 11.781827 -11.036257 15.964820 -9.522578 5.774063 2.968906 -6.950189 
0.439442 0.981437 1.018692 -77.124618 0.081361 81.355394 2.258634 -2.102058 -11.413760 -10.296663 0.127699 49.338155 -0.397141 4.251741 -3.596319 0.000000 -0.000000 0.000000 -0.712281 -3.680385 2.962874 0.995017 0.074110 14.813057 1.087226 -4.729462 -9.584558 0.000000 -0.000000 0.000000 0.364451 4.133775 16.211291 1.267615 0.352010 -2.889021 -0.178609 -0.451408 2.373639 0.307686 6.102528 0.585507 -3.646533 3.093179 17.472111 -29.753051 6.619526 1.524454 -54.925571 -4.874887 9.514738 4.888582 -28.188317 11.761708 -5.789626 -3.878589 -6.044152 30.834969 0.129490 0.669338 46.508894 9.439299 11.131723 -11.138745 16.677394 -9.807743 5.549101 2.823494 -7.672546 
0.414652 0.976082 1.018062 -76.423471 -0.241312 81.443478 2.504355 -1.771255 -13.072192 -9.281873 1.886875 43.137773 -0.056776 5.370179 -6.325085 0.000000 -0.000000 0.000000 -1.333183 -4.346288 5.241555 1.149370 0.308162 13.739174 1.667904 -4.882314 -10.428934 0.000000 -0.000000 0.000000 0.354778 4.844823 16.216003 0.893302 0.565382 -2.796357 -0.262486 -0.160981 2.744829 0.714488 6.081862 0.081238 -4.444489 3.142259 17.435708 -30.323688 6.877082 0.925655 -54.909775 -4.259156 9.599391 4.719744 -27.222999 11.828498 -5.754085 -3.550429 -5.474535 30.414462 0.838159 0.186646 45.461436 10.803544 11.003698 -11.147226 16.860675 -10.855761 4.870931 3.110218 -7.634071 
